<svg xmlns="http://www.w3.org/2000/svg" width="58" height="47" fill="none"><path fill="#D5C9BE" d="M45.238 9.972c3.909 0 5.34 2.073 5.34 2.916 0 .341-.184.645-.776.645-2.79 0-4.538 1.672-5.893 3.9-1.356 2.231-15.827 25.534-16.815 27.123A4.866 4.866 0 0 1 22.824 47a4.912 4.912 0 0 1-4.259-2.455c-.017-.029-11.495-18.393-13.05-20.854C3.46 20.35 2.762 19.372.899 19.372c-.735 0-.9-.412-.901-.795 0-1.073 1.704-2.696 4.799-2.696 2.333 0 5.05.921 7.398 4.702.048.076 5.76 9.157 10.026 15.895.162.256.29.413.545.413.253 0 .434-.253.526-.413 2.113-3.401 12.098-19.287 13.386-21.285 2.51-3.947 5.612-5.221 8.56-5.221ZM53.2 15.88c3.095 0 4.799 1.623 4.799 2.696 0 .383-.173.795-.901.795h-.004c-1.863 0-2.558.977-4.616 4.32a17012.105 17012.105 0 0 1-13.02 20.853 4.928 4.928 0 0 1-1.805 1.8 4.87 4.87 0 0 1-2.45.655 5.01 5.01 0 0 1-2.267-.543 5.007 5.007 0 0 1-1.779-1.522 1.01 1.01 0 0 1-.268-.546c.033-.208.125-.401.268-.557.096-.163 14.568-23.128 14.645-23.249 2.374-3.78 5.072-4.702 7.398-4.702ZM12.691 9.968c2.937 0 6.052 1.274 8.562 5.222a1805.5 1805.5 0 0 1 5.63 8.914c.074.1.111.222.115.348a.68.68 0 0 1-.118.364c-.086.12-3.644 5.768-3.74 5.924a.534.534 0 0 1-.463.275.477.477 0 0 1-.261-.079.507.507 0 0 1-.18-.204c-.093-.132-6.843-11.067-8.2-13.302-1.359-2.232-3.11-3.9-5.896-3.9-.593 0-.774-.305-.774-.646 0-.843 1.414-2.916 5.322-2.916h.003ZM28.977 0c1.09 0 2.161.3 3.092.87A6.019 6.019 0 0 1 34.27 3.23a1.22 1.22 0 0 0 1.232.81c3.063 0 5.566 2.202 5.566 3.51 0 .646-.497.947-1.185 1.073-2.319.401-3.559 1.307-5.388 4.151-2.009 3.175-4.857 7.616-5.002 7.852-.235.35-.368.383-.534.383-.165 0-.29-.038-.515-.383-.154-.234-2.966-4.676-5.002-7.844-1.78-2.833-3.065-3.755-5.387-4.156-.681-.126-1.186-.427-1.186-1.073.023-1.311 2.54-3.509 5.583-3.51v-.003a1.225 1.225 0 0 0 1.233-.81A5.992 5.992 0 0 1 25.888.87 5.938 5.938 0 0 1 28.977 0Z"/></svg>